%FSLAX34Y34*%
%MOMM*%
%LNSILK_TOP*%
G71*
G01*
%ADD10C, 1.50*%
%LPD*%
G36*
X10166Y463814D02*
X10166Y443814D01*
X50166Y443814D01*
X50166Y463814D01*
X10166Y463814D01*
G37*
G36*
X10166Y438414D02*
X10166Y418414D01*
X50166Y418414D01*
X50166Y438414D01*
X10166Y438414D01*
G37*
G36*
X10166Y413014D02*
X10166Y393014D01*
X50166Y393014D01*
X50166Y413014D01*
X10166Y413014D01*
G37*
G36*
X10166Y387614D02*
X10166Y367614D01*
X50166Y367614D01*
X50166Y387614D01*
X10166Y387614D01*
G37*
G36*
X10166Y362214D02*
X10166Y342214D01*
X50166Y342214D01*
X50166Y362214D01*
X10166Y362214D01*
G37*
G36*
X10166Y336814D02*
X10166Y316814D01*
X50166Y316814D01*
X50166Y336814D01*
X10166Y336814D01*
G37*
G36*
X10166Y311414D02*
X10166Y291414D01*
X50166Y291414D01*
X50166Y311414D01*
X10166Y311414D01*
G37*
G36*
X10166Y286014D02*
X10166Y266014D01*
X50166Y266014D01*
X50166Y286014D01*
X10166Y286014D01*
G37*
G36*
X10166Y242754D02*
X10166Y222754D01*
X50166Y222754D01*
X50166Y242754D01*
X10166Y242754D01*
G37*
G36*
X10166Y217354D02*
X10166Y197354D01*
X50166Y197354D01*
X50166Y217354D01*
X10166Y217354D01*
G37*
G36*
X10166Y191954D02*
X10166Y171954D01*
X50166Y171954D01*
X50166Y191954D01*
X10166Y191954D01*
G37*
G36*
X10166Y166554D02*
X10166Y146554D01*
X50166Y146554D01*
X50166Y166554D01*
X10166Y166554D01*
G37*
G36*
X10166Y141154D02*
X10166Y121154D01*
X50166Y121154D01*
X50166Y141154D01*
X10166Y141154D01*
G37*
G36*
X10166Y115754D02*
X10166Y95754D01*
X50166Y95754D01*
X50166Y115754D01*
X10166Y115754D01*
G37*
G36*
X10166Y90354D02*
X10166Y70354D01*
X50166Y70354D01*
X50166Y90354D01*
X10166Y90354D01*
G37*
G36*
X10166Y64954D02*
X10166Y44954D01*
X50166Y44954D01*
X50166Y64954D01*
X10166Y64954D01*
G37*
G36*
X488794Y192562D02*
X488794Y172562D01*
X528794Y172562D01*
X528794Y192562D01*
X488794Y192562D01*
G37*
G36*
X488794Y167162D02*
X488794Y147162D01*
X528794Y147162D01*
X528794Y167162D01*
X488794Y167162D01*
G37*
G36*
X488794Y141762D02*
X488794Y121762D01*
X528794Y121762D01*
X528794Y141762D01*
X488794Y141762D01*
G37*
G36*
X488794Y116362D02*
X488794Y96362D01*
X528794Y96362D01*
X528794Y116362D01*
X488794Y116362D01*
G37*
G36*
X488794Y90962D02*
X488794Y70962D01*
X528794Y70962D01*
X528794Y90962D01*
X488794Y90962D01*
G37*
G36*
X488794Y65562D02*
X488794Y45562D01*
X528794Y45562D01*
X528794Y65562D01*
X488794Y65562D01*
G37*
G36*
X489191Y366790D02*
X489191Y346790D01*
X529191Y346790D01*
X529191Y366790D01*
X489191Y366790D01*
G37*
G36*
X489191Y341390D02*
X489191Y321390D01*
X529191Y321390D01*
X529191Y341390D01*
X489191Y341390D01*
G37*
G36*
X489191Y315990D02*
X489191Y295990D01*
X529191Y295990D01*
X529191Y315990D01*
X489191Y315990D01*
G37*
G36*
X489191Y290590D02*
X489191Y270590D01*
X529191Y270590D01*
X529191Y290590D01*
X489191Y290590D01*
G37*
G36*
X489191Y265190D02*
X489191Y245190D01*
X529191Y245190D01*
X529191Y265190D01*
X489191Y265190D01*
G37*
G36*
X489191Y239790D02*
X489191Y219790D01*
X529191Y219790D01*
X529191Y239790D01*
X489191Y239790D01*
G37*
G36*
X258129Y220593D02*
X258129Y240593D01*
X218129Y240593D01*
X218129Y220593D01*
X258129Y220593D01*
G37*
G36*
X258129Y245993D02*
X258129Y265993D01*
X218129Y265993D01*
X218129Y245993D01*
X258129Y245993D01*
G37*
G36*
X258129Y271393D02*
X258129Y291393D01*
X218129Y291393D01*
X218129Y271393D01*
X258129Y271393D01*
G37*
G36*
X226867Y417774D02*
X246867Y417774D01*
X246867Y437774D01*
X226867Y437774D01*
X226867Y417774D01*
G37*
G36*
X303067Y417773D02*
X323067Y417773D01*
X323067Y437773D01*
X303067Y437773D01*
X303067Y417773D01*
G37*
G36*
X150221Y286589D02*
X150221Y271089D01*
X181221Y271089D01*
X181221Y286589D01*
X150221Y286589D01*
G37*
G36*
X150221Y311489D02*
X150221Y295989D01*
X181221Y295989D01*
X181221Y311489D01*
X150221Y311489D01*
G37*
G36*
X182839Y224195D02*
X182839Y239695D01*
X151839Y239695D01*
X151839Y224195D01*
X182839Y224195D01*
G37*
G36*
X182839Y199295D02*
X182839Y214795D01*
X151839Y214795D01*
X151839Y199295D01*
X182839Y199295D01*
G37*
G36*
X416187Y394798D02*
X416187Y410298D01*
X400687Y410298D01*
X400687Y394798D01*
X416187Y394798D01*
G37*
G36*
X416187Y420198D02*
X416187Y435698D01*
X400687Y435698D01*
X400687Y420198D01*
X416187Y420198D01*
G37*
G54D10*
X238129Y255993D02*
X188567Y255993D01*
X165721Y278839D01*
G54D10*
X238129Y255993D02*
X188567Y255993D01*
X165721Y233147D01*
G54D10*
X509191Y229790D02*
X464741Y229790D01*
X439738Y204788D01*
X439738Y122238D01*
X438150Y120650D01*
G36*
X79602Y417943D02*
X99602Y417943D01*
X99602Y437943D01*
X79602Y437943D01*
X79602Y417943D01*
G37*
G36*
X105002Y417943D02*
X125002Y417943D01*
X125002Y437943D01*
X105002Y437943D01*
X105002Y417943D01*
G37*
G36*
X130402Y417943D02*
X150402Y417943D01*
X150402Y437943D01*
X130402Y437943D01*
X130402Y417943D01*
G37*
G36*
X155802Y417943D02*
X175802Y417943D01*
X175802Y437943D01*
X155802Y437943D01*
X155802Y417943D01*
G37*
G36*
X181202Y417943D02*
X201202Y417943D01*
X201202Y437943D01*
X181202Y437943D01*
X181202Y417943D01*
G37*
G54D10*
X191202Y427943D02*
X191202Y351539D01*
X165100Y325438D01*
X165100Y304359D01*
X165721Y303739D01*
G54D10*
X115002Y427943D02*
X115002Y376939D01*
X90488Y352425D01*
X30377Y352425D01*
X30166Y352214D01*
G36*
X124888Y284908D02*
X106888Y284908D01*
X106888Y266908D01*
X124888Y266908D01*
X124888Y284908D01*
G37*
G36*
X99488Y284908D02*
X81488Y284908D01*
X81488Y266908D01*
X99488Y266908D01*
X99488Y284908D01*
G37*
G36*
X74088Y284908D02*
X56088Y284908D01*
X56088Y266908D01*
X74088Y266908D01*
X74088Y284908D01*
G37*
G36*
X124888Y259508D02*
X106888Y259508D01*
X106888Y241508D01*
X124888Y241508D01*
X124888Y259508D01*
G37*
G36*
X99488Y259508D02*
X81488Y259508D01*
X81488Y241508D01*
X99488Y241508D01*
X99488Y259508D01*
G37*
G36*
X74088Y259508D02*
X56088Y259508D01*
X56088Y241508D01*
X74088Y241508D01*
X74088Y259508D01*
G37*
G36*
X103967Y116804D02*
X103967Y96804D01*
X123967Y96804D01*
X123967Y116804D01*
X103967Y116804D01*
G37*
G36*
X103967Y91404D02*
X103967Y71404D01*
X123967Y71404D01*
X123967Y91404D01*
X103967Y91404D01*
G37*
G36*
X103967Y66004D02*
X103967Y46004D01*
X123967Y46004D01*
X123967Y66004D01*
X103967Y66004D01*
G37*
G54D10*
X140402Y427943D02*
X140402Y373764D01*
X93663Y327025D01*
X30377Y327025D01*
X30166Y326814D01*
G54D10*
X89602Y427943D02*
X89602Y395989D01*
X71438Y377825D01*
X30377Y377825D01*
X30166Y377614D01*
G54D10*
X509191Y280590D02*
X509191Y255190D01*
G54D10*
X236867Y427774D02*
X191371Y427774D01*
X191202Y427943D01*
G54D10*
X313067Y427773D02*
X407024Y427773D01*
X408437Y427948D01*
G54D10*
X408437Y400960D02*
X408437Y305249D01*
X407988Y304800D01*
G36*
X371950Y130650D02*
X351950Y130650D01*
X351950Y110650D01*
X371950Y110650D01*
X371950Y130650D01*
G37*
G36*
X448150Y130650D02*
X428150Y130650D01*
X428150Y110650D01*
X448150Y110650D01*
X448150Y130650D01*
G37*
G54D10*
X30166Y428414D02*
X60114Y428414D01*
X65088Y433388D01*
X65088Y449262D01*
X71438Y455612D01*
X160338Y455612D01*
X165100Y450850D01*
X165100Y428644D01*
X165802Y427943D01*
G54D10*
X113967Y133792D02*
X90046Y133792D01*
X66675Y157162D01*
X31146Y157162D01*
X30166Y158142D01*
G54D10*
X113967Y133792D02*
X131321Y133792D01*
X146050Y119062D01*
X146050Y68262D01*
X133350Y55562D01*
X114409Y55562D01*
X113967Y56004D01*
G54D10*
X30166Y105754D02*
X59346Y105754D01*
X82550Y82550D01*
X112822Y82550D01*
X113967Y81404D01*
G54D10*
X113967Y106804D02*
X88458Y106804D01*
X64108Y131154D01*
X30166Y131154D01*
G54D10*
X238129Y281393D02*
X238129Y296859D01*
X230188Y304800D01*
X166782Y304800D01*
X165721Y303739D01*
G54D10*
X238129Y230188D02*
X238129Y214722D01*
X230188Y206780D01*
X166782Y206780D01*
X165721Y207842D01*
G54D10*
X509191Y280590D02*
X460773Y280590D01*
X438150Y303212D01*
X346075Y303212D01*
X298450Y255588D01*
X238535Y255588D01*
X238129Y255993D01*
G54D10*
X361950Y120650D02*
X334962Y120650D01*
X315912Y139700D01*
X315912Y215900D01*
X300038Y231775D01*
X239311Y231775D01*
X238129Y230593D01*
G36*
X248060Y220652D02*
X248060Y240652D01*
X228060Y240652D01*
X228060Y220652D01*
X248060Y220652D01*
G37*
G36*
X248060Y246052D02*
X248060Y266052D01*
X228060Y266052D01*
X228060Y246052D01*
X248060Y246052D01*
G37*
G36*
X248060Y271452D02*
X248060Y291452D01*
X228060Y291452D01*
X228060Y271452D01*
X248060Y271452D01*
G37*
G54D10*
X65088Y250508D02*
X65088Y217488D01*
X55562Y207962D01*
X30774Y207962D01*
X30166Y207354D01*
G54D10*
X30166Y301414D02*
X58949Y301414D01*
X65088Y295275D01*
X65088Y275908D01*
G54D10*
X115888Y275908D02*
X115888Y285750D01*
X134938Y304800D01*
X164660Y304800D01*
X165721Y303739D01*
G54D10*
X115888Y275908D02*
X115888Y250508D01*
G54D10*
X90488Y250508D02*
X90488Y225424D01*
X101600Y214312D01*
X127000Y214312D01*
X144633Y231945D01*
X167339Y231945D01*
G54D10*
X90488Y250508D02*
X90488Y275908D01*
X90488Y293688D01*
X165100Y368300D01*
X165100Y427241D01*
X165802Y427943D01*
M02*
