; Drill file
; Format: 3.3 (000.000)
M48
METRIC
T01C0.8
T02C1.0
%
G05
G90
T01
X016730Y020700
X016730Y023190
X016570Y027880
X016570Y030370
X023690Y042780
X031310Y042780
X040840Y042790
X040840Y040250
T02
X050880Y005560
X050880Y008100
X050880Y010640
X050880Y013180
X050880Y015720
X050880Y018260
X050920Y022980
X050920Y025520
X050920Y028060
X050920Y030600
X050920Y033140
X050920Y035680
X043820Y012060
X036200Y012060
X023810Y023070
X023810Y025610
X023810Y028150
X011590Y027590
X009050Y027590
X006510Y027590
X006510Y025050
X009050Y025050
X011590Y025050
X003020Y023280
X003020Y020740
X003020Y018200
X003020Y015660
X003020Y013120
X003020Y010580
X003020Y008040
X003020Y005500
X011400Y005600
X011400Y008140
X011400Y010680
X003020Y027600
X003020Y030140
X003020Y032680
X003020Y035220
X003020Y037760
X003020Y040300
X003020Y042840
X003020Y045380
X008960Y042790
X011500Y042790
X014040Y042790
X016580Y042790
X019120Y042790
M30
